<svg width="33" height="33" viewBox="0 0 33 33" fill="none" xmlns="http://www.w3.org/2000/svg">
<path d="M17.7321 18.6589V18.1009C17.7321 17.4204 17.1806 16.8689 16.5006 16.8689C15.8201 16.8689 15.2686 17.4204 15.2686 18.1009V18.6589C15.2686 19.3394 15.8201 19.8909 16.5006 19.8909C17.1801 19.8909 17.7321 19.3394 17.7321 18.6589Z" fill="#F0145A"/>
<path d="M18.5778 19.3405C18.3048 20.234 17.4823 20.89 16.5013 20.89C15.5198 20.89 14.6973 20.234 14.4243 19.3405H5.93984C5.40434 19.3405 4.89834 19.216 4.44434 19V24.6335C4.44434 25.7335 5.34434 26.6335 6.44434 26.6335H26.5573C27.6573 26.6335 28.5573 25.7335 28.5573 24.6335V19.0005C28.1028 19.2165 27.5973 19.341 27.0618 19.341H18.5778V19.3405Z" fill="#F0145A"/>
<path d="M26.978 9.22451H22.1775C21.8875 7.41151 20.317 6.02051 18.4235 6.02051H14.577C12.6835 6.02051 11.1135 7.41151 10.823 9.22451H6.02295C4.87695 9.22451 3.93945 10.1245 3.93945 11.2245V15.841C3.93945 16.9455 4.83495 17.841 5.93945 17.841H14.3295C14.358 17.2655 14.605 16.7485 14.9955 16.3745C15.0075 16.363 15.0215 16.354 15.034 16.343C15.1205 16.2635 15.2105 16.1885 15.309 16.1235C15.344 16.1 15.384 16.084 15.4205 16.063C15.5015 16.0165 15.5815 15.968 15.669 15.932C15.7375 15.9035 15.8115 15.887 15.8835 15.8655C15.9455 15.847 16.0045 15.8225 16.069 15.8095C16.2085 15.781 16.353 15.766 16.5005 15.766C16.6485 15.766 16.7925 15.7815 16.932 15.8095C16.996 15.8225 17.055 15.847 17.117 15.8655C17.189 15.887 17.263 15.9035 17.3315 15.9325C17.4185 15.9685 17.498 16.0165 17.579 16.063C17.616 16.0845 17.656 16.1005 17.6915 16.124C17.79 16.1885 17.8795 16.2635 17.966 16.343C17.9785 16.3545 17.993 16.3635 18.005 16.3755C18.396 16.7495 18.6425 17.2665 18.671 17.842H27.061C28.1655 17.842 29.061 16.9465 29.061 15.842V11.2255C29.0615 10.1245 28.124 9.22451 26.978 9.22451ZM12.7485 9.22451C13.0035 8.45401 13.722 7.89251 14.577 7.89251H18.4235C19.2785 7.89251 19.997 8.45401 20.252 9.22451H12.7485Z" fill="#F0145A"/>
</svg>
