<svg width="33" height="33" viewBox="0 0 33 33" fill="none" xmlns="http://www.w3.org/2000/svg">
<path d="M27.6137 6.63231C27.4447 6.46431 27.2457 6.37981 27.0157 6.37981C26.9012 6.37981 26.6597 6.4738 26.2927 6.65931C25.9252 6.8453 25.5352 7.05231 25.1247 7.28331C24.7132 7.5128 24.2262 7.72081 23.6642 7.90681C23.1027 8.09231 22.5827 8.18631 22.1042 8.18631C21.6622 8.18631 21.2722 8.1023 20.9362 7.9338C19.8217 7.41181 18.8522 7.02231 18.0292 6.76531C17.2062 6.50881 16.3212 6.37981 15.3737 6.37981C13.7377 6.37981 11.8742 6.9118 9.78524 7.9738C9.35424 8.18881 9.04524 8.35531 8.84524 8.47731L8.64674 7.02181C9.09524 6.63231 9.38474 6.0648 9.38474 5.4243C9.38474 4.2508 8.43374 3.2998 7.26024 3.2998C6.08674 3.2998 5.13574 4.2508 5.13574 5.4243C5.13574 6.1898 5.54474 6.85531 6.15174 7.22931L9.02174 28.2743C9.10724 28.9008 9.64324 29.3553 10.2587 29.3553C10.3147 29.3553 10.3717 29.3518 10.4292 29.3443C11.1132 29.2503 11.5922 28.6208 11.4987 27.9368L10.3452 19.4783C12.4382 18.4398 14.2487 17.9163 15.7717 17.9163C16.4182 17.9163 17.0487 18.0128 17.6632 18.2078C18.2782 18.4033 18.7897 18.6153 19.1967 18.8448C19.6037 19.0748 20.0842 19.2878 20.6367 19.4818C21.1902 19.6768 21.7367 19.7743 22.2762 19.7743C23.6392 19.7743 25.2717 19.2608 27.1742 18.2343C27.4132 18.1103 27.5882 17.9883 27.6987 17.8688C27.8092 17.7493 27.8647 17.5793 27.8647 17.3583V7.2298C27.8647 7.0003 27.7812 6.80081 27.6137 6.63231Z" fill="#F0145A"/>
</svg>
