<svg width="33" height="33" viewBox="0 0 33 33" fill="none" xmlns="http://www.w3.org/2000/svg">
<path d="M16.5966 3.87988C9.75209 3.87988 4.18359 9.44838 4.18359 16.2929C4.18359 23.1379 9.75209 28.7069 16.5966 28.7069C23.4411 28.7069 29.0096 23.1379 29.0096 16.2929C29.0101 9.44838 23.4416 3.87988 16.5966 3.87988ZM23.4551 15.3854V15.3859L19.8616 17.9859L21.2456 22.2159C21.2676 22.2819 21.2791 22.3524 21.2791 22.4244C21.2791 22.7939 20.9801 23.0939 20.6106 23.0939C20.4636 23.0939 20.3286 23.0469 20.2186 22.9674L16.5971 20.3479L12.9756 22.9674C12.8656 23.0469 12.7306 23.0939 12.5841 23.0939C12.2141 23.0939 11.9146 22.7944 11.9146 22.4244C11.9146 22.3519 11.9266 22.2819 11.9486 22.2159L13.3331 17.9859L9.73959 15.3859V15.3854C9.57159 15.2644 9.46259 15.0669 9.46259 14.8439C9.46259 14.4744 9.76159 14.1754 10.1316 14.1754H14.5801L15.9576 9.96488C16.0416 9.69138 16.2961 9.49238 16.5976 9.49238C16.8986 9.49238 17.1536 9.69138 17.2371 9.96488L18.6146 14.1754H23.0631C23.4326 14.1754 23.7321 14.4744 23.7321 14.8439C23.7316 15.0669 23.6226 15.2644 23.4551 15.3854Z" fill="#F0145A"/>
</svg>
